<svg width="200" height="200" viewBox="0 0 200 200" fill="none" xmlns="http://www.w3.org/2000/svg">
<rect x="5" y="4.99988" width="190" height="190" rx="25" fill="white" stroke="#5195FB" stroke-width="10"/>
<path d="M111.317 100.217C113.001 105.528 113.911 110.6 114.046 115.434C114.203 120.225 113.49 124.646 111.907 128.699C110.324 132.751 107.818 136.325 104.389 139.42L127.684 153.169L108.282 159.324L90.1006 147.449C89.8725 147.521 89.677 147.583 89.5141 147.635C89.3512 147.687 89.172 147.744 88.9766 147.806C83.1448 149.656 77.821 150.394 73.0053 150.021C68.1793 149.616 63.8486 148.228 60.0133 145.859C56.2105 143.48 52.9067 140.243 50.1018 136.148C47.2969 132.054 45.016 127.237 43.2591 121.698C40.9131 114.303 40.0775 107.486 40.7521 101.248C41.449 94.9667 43.8419 89.5103 47.9306 84.8784C52.0193 80.2466 57.957 76.6957 65.7436 74.2257C73.4976 71.766 80.3475 71.2606 86.2933 72.7093C92.2718 74.1476 97.3397 77.2374 101.497 81.9786C105.687 86.7095 108.96 92.7891 111.317 100.217ZM59.1728 116.758C60.754 121.743 62.7372 125.847 65.1224 129.071C67.5298 132.251 70.3794 134.395 73.671 135.503C76.9523 136.577 80.7106 136.443 84.946 135.1C89.2465 133.735 92.4277 131.668 94.4895 128.899C96.5409 126.097 97.601 122.712 97.6696 118.746C97.7605 114.737 97.0153 110.24 95.4341 105.255C93.0571 97.7621 89.7856 92.3095 85.6195 88.8978C81.4535 85.4861 76.1614 84.7982 69.7431 86.8341C65.4752 88.188 62.2992 90.2712 60.2151 93.0837C58.1533 95.8534 57.0607 99.2479 56.9373 103.267C56.8361 107.244 57.5812 111.741 59.1728 116.758ZM134.465 106.214L133.318 102.597C132.615 100.382 132.304 98.3288 132.386 96.4383C132.457 94.5152 132.934 92.571 133.817 90.6057C134.689 88.6078 135.991 86.4379 137.722 84.0958C139.287 82.0215 140.492 80.223 141.336 78.7003C142.212 77.1673 142.751 75.7591 142.954 74.4757C143.178 73.1494 143.063 71.7695 142.609 70.336C141.937 68.2183 140.643 66.8536 138.728 66.242C136.813 65.6303 134.455 65.7689 131.653 66.6577C128.851 67.5465 126.205 68.8699 123.714 70.628C121.257 72.3758 118.838 74.416 116.458 76.7487L107.737 67.7359C110.416 64.878 113.486 62.2906 116.946 59.9737C120.396 57.6242 124.386 55.7312 128.914 54.2947C135.886 52.0831 141.811 52.0505 146.687 54.1971C151.585 56.3007 154.851 59.9263 156.484 65.0739C157.352 67.8106 157.667 70.3285 157.428 72.6275C157.211 74.8835 156.497 77.154 155.286 79.4388C154.096 81.6807 152.498 84.1598 150.491 86.8762C148.991 88.9298 147.875 90.6107 147.142 91.9188C146.41 93.2269 146.003 94.4317 145.922 95.5331C145.863 96.5916 146.051 97.805 146.485 99.1734L147.415 102.106L134.465 106.214ZM138.203 123.423C137.231 120.361 137.38 117.947 138.649 116.182C139.95 114.406 141.79 113.141 144.168 112.387C146.482 111.653 148.665 111.642 150.72 112.353C152.806 113.053 154.336 114.935 155.307 117.997C156.237 120.93 156.062 123.316 154.781 125.157C153.533 126.987 151.752 128.269 149.439 129.003C147.061 129.757 144.818 129.751 142.71 128.986C140.635 128.209 139.133 126.355 138.203 123.423Z" fill="#5195FB"/>
</svg>
