<svg width="200" height="200" viewBox="0 0 200 200" fill="none" xmlns="http://www.w3.org/2000/svg">
<rect width="200" height="200" fill="#5195FB"/>
<path d="M111.317 100.217C113.001 105.528 113.911 110.6 114.046 115.434C114.203 120.225 113.49 124.647 111.907 128.699C110.324 132.751 107.818 136.325 104.389 139.421L127.684 153.17L108.282 159.324L90.1006 147.449C89.8725 147.522 89.677 147.584 89.5141 147.635C89.3512 147.687 89.172 147.744 88.9766 147.806C83.1448 149.656 77.821 150.394 73.0053 150.021C68.1793 149.616 63.8486 148.229 60.0133 145.859C56.2105 143.48 52.9067 140.243 50.1018 136.148C47.2969 132.054 45.016 127.237 43.2591 121.699C40.9131 114.303 40.0775 107.486 40.7521 101.248C41.449 94.9668 43.8419 89.5104 47.9306 84.8786C52.0193 80.2468 57.957 76.6958 65.7436 74.2258C73.4976 71.7662 80.3475 71.2607 86.2933 72.7094C92.2718 74.1478 97.3397 77.2375 101.497 81.9788C105.687 86.7096 108.96 92.7892 111.317 100.217ZM59.1728 116.758C60.754 121.743 62.7372 125.847 65.1224 129.071C67.5298 132.251 70.3794 134.395 73.671 135.503C76.9523 136.578 80.7106 136.443 84.946 135.1C89.2465 133.735 92.4277 131.669 94.4895 128.899C96.5409 126.097 97.601 122.712 97.6696 118.746C97.7605 114.737 97.0153 110.24 95.4341 105.256C93.0571 97.7622 89.7856 92.3097 85.6195 88.8979C81.4535 85.4862 76.1614 84.7983 69.7431 86.8342C65.4752 88.1881 62.2992 90.2713 60.2151 93.0839C58.1533 95.8535 57.0607 99.2481 56.9373 103.267C56.8361 107.244 57.5812 111.741 59.1728 116.758ZM134.465 106.214L133.318 102.597C132.615 100.382 132.304 98.329 132.386 96.4385C132.457 94.5154 132.934 92.5712 133.817 90.6059C134.689 88.608 135.991 86.438 137.722 84.0959C139.287 82.0216 140.492 80.2231 141.336 78.7005C142.212 77.1675 142.751 75.7592 142.954 74.4758C143.178 73.1495 143.063 71.7696 142.609 70.3361C141.937 68.2184 140.643 66.8537 138.728 66.2421C136.813 65.6305 134.455 65.769 131.653 66.6578C128.851 67.5466 126.205 68.8701 123.714 70.6282C121.257 72.3759 118.838 74.4161 116.458 76.7488L107.737 67.736C110.416 64.8781 113.486 62.2907 116.946 59.9738C120.396 57.6243 124.386 55.7313 128.914 54.2948C135.886 52.0832 141.811 52.0506 146.687 54.1972C151.585 56.3008 154.851 59.9265 156.484 65.0741C157.352 67.8108 157.667 70.3286 157.428 72.6276C157.211 74.8837 156.497 77.1541 155.286 79.4389C154.096 81.6808 152.498 84.16 150.491 86.8764C148.991 88.93 147.875 90.6108 147.142 91.9189C146.41 93.227 146.003 94.4318 145.922 95.5332C145.863 96.5917 146.051 97.8051 146.485 99.1735L147.415 102.106L134.465 106.214ZM138.203 123.423C137.231 120.361 137.38 117.947 138.649 116.182C139.95 114.406 141.79 113.141 144.168 112.387C146.482 111.653 148.665 111.642 150.72 112.353C152.806 113.053 154.336 114.935 155.307 117.997C156.237 120.93 156.062 123.316 154.781 125.157C153.533 126.987 151.752 128.269 149.439 129.003C147.061 129.757 144.818 129.751 142.71 128.986C140.635 128.21 139.133 126.355 138.203 123.423Z" fill="white"/>
</svg>
