<svg viewBox="0 0 258 45" fill="none" xmlns="http://www.w3.org/2000/svg">
<path d="M7.15625 25.8125C6.28125 25.8125 5.44792 25.6458 4.65625 25.3125C3.88542 24.9583 3.20833 24.5 2.625 23.9375C2.04167 23.3542 1.58333 22.6771 1.25 21.9062C0.916667 21.1146 0.75 20.2812 0.75 19.4062V6.59375C0.75 5.71875 0.916667 4.89583 1.25 4.125C1.58333 3.33333 2.04167 2.65625 2.625 2.09375C3.20833 1.51042 3.88542 1.05208 4.65625 0.71875C5.44792 0.364583 6.28125 0.1875 7.15625 0.1875H28.9062C29.7812 0.1875 30.6042 0.364583 31.375 0.71875C32.1667 1.05208 32.8542 1.51042 33.4375 2.09375C34.0208 2.65625 34.4792 3.33333 34.8125 4.125C35.1458 4.89583 35.3125 5.71875 35.3125 6.59375V12.375H28.9062V6.59375H7.15625V19.4062H28.9062C29.7812 19.4062 30.6042 19.5729 31.375 19.9062C32.1667 20.2396 32.8542 20.6979 33.4375 21.2812C34.0208 21.8646 34.4792 22.5521 34.8125 23.3438C35.1458 24.1146 35.3125 24.9375 35.3125 25.8125V38.5938C35.3125 39.4688 35.1458 40.3021 34.8125 41.0938C34.4792 41.8646 34.0208 42.5417 33.4375 43.125C32.8542 43.7083 32.1667 44.1667 31.375 44.5C30.6042 44.8333 29.7812 45 28.9062 45H6.53125C5.65625 45 4.82292 44.8333 4.03125 44.5C3.26042 44.1667 2.58333 43.7083 2 43.125C1.41667 42.5417 0.958333 41.8646 0.625 41.0938C0.291667 40.3021 0.125 39.4688 0.125 38.5938V32.8438H6.53125V38.5938H28.9062V25.8125H7.15625ZM53.2812 45H46.875V0.1875H53.2812L80.2188 34.9375V0.1875H86.625V45H80.2188L53.2812 10.25V45ZM117.969 0.1875L135.25 45H128.844L124.875 34.6875H104.656L100.688 45H94.2812L111.562 0.1875H117.969ZM107.094 28.2812H122.406L114.781 8.53125L107.094 28.2812ZM142.938 45V0.1875H167.469C174.719 0.1875 178.344 3.82292 178.344 11.0938V17.4688C178.344 24.7396 174.719 28.375 167.469 28.375H149.344V45H142.938ZM149.344 21.9688H167.125C168.833 21.9688 170.062 21.5938 170.812 20.8438C171.562 20.0938 171.938 18.8646 171.938 17.1562V11.4062C171.938 9.69792 171.562 8.46875 170.812 7.71875C170.062 6.96875 168.833 6.59375 167.125 6.59375H149.344V21.9688ZM193.719 0.1875V38.5938H216.75V45H187.312V0.1875H193.719ZM224.438 0.1875H257.094V6.59375H230.844V19.4062H253.25V25.8125H230.844V38.5938H257.094V45H224.438V0.1875Z" fill="currentcolor"/>
</svg>
